<svg id="Calque_1" data-name="Calque 1" xmlns="http://www.w3.org/2000/svg" viewBox="0 0 145.03 37.89"><defs><style>.cls-1{fill:#3b82f6;}</style></defs><path class="cls-1" d="M19,9.67a9.3,9.3,0,0,0-5.32,1.63h0v0a2.43,2.43,0,0,0-.31-.55l0-.06C12.26,9.18,8.51,6.81,0,25.1a.26.26,0,0,0,.46.26c3.21-5.23,8.6-13.25,8.77-8.44V35.63a2.25,2.25,0,1,0,4.5,0V26.92A9.72,9.72,0,0,0,19,28.49,9.41,9.41,0,0,0,19,9.67ZM19,24a4.91,4.91,0,1,1,4.91-4.91A4.91,4.91,0,0,1,19,24Z"/><path class="cls-1" d="M40.83,9.93a8.27,8.27,0,0,0-1.64-.15,9.34,9.34,0,0,0,0,18.67,10.35,10.35,0,0,0,7-2.64,2.2,2.2,0,0,0,0-3.16,2.24,2.24,0,0,0-3.16,0A6.24,6.24,0,0,1,39.19,24a4.9,4.9,0,0,1-4.72-3.75H45.92a2,2,0,0,0,1.83-1.34A3.12,3.12,0,0,0,48,17.85a7.06,7.06,0,0,0-1.19-3.64A8.94,8.94,0,0,0,40.83,9.93ZM35.1,16.51a4.85,4.85,0,0,1,4.09-2.23A4.15,4.15,0,0,1,43,16.51Z"/><path class="cls-1" d="M58,13.8a2.24,2.24,0,0,0,0-4.47H56.75V2.23a2.24,2.24,0,0,0-4.47,0v7.1h-1.6a2.24,2.24,0,0,0,0,4.47h1.6v9.37a5.42,5.42,0,0,0,1.27,3.34,5.36,5.36,0,0,0,3.27,1.68,7.79,7.79,0,0,0,1,0A2.22,2.22,0,0,0,60,26a2.25,2.25,0,0,0-2.23-2.23c-.26,0-.6,0-.78-.15s-.19-.67-.26-1V13.8Z"/><path class="cls-1" d="M85.38,9.86a2.23,2.23,0,0,0-2.23,2.23v9.4a2.92,2.92,0,0,1-5.8,0V12.16a2.24,2.24,0,0,0-4.47,0v9.33a2.92,2.92,0,0,1-5.8,0V12.16a2.23,2.23,0,0,0-4.46,0v9.33a7.22,7.22,0,0,0,7.36,7,7.56,7.56,0,0,0,5.14-2,7.6,7.6,0,0,0,5.13,2,7.25,7.25,0,0,0,7.36-6.8V12.09A2.23,2.23,0,0,0,85.38,9.86Z"/><path class="cls-1" d="M99.73,9.59A9.34,9.34,0,1,0,109.1,19,9.37,9.37,0,0,0,99.73,9.59Zm0,14.1a4.76,4.76,0,1,1,4.76-4.76A4.75,4.75,0,0,1,99.73,23.69Z"/><path class="cls-1" d="M120.78,9.82a9,9,0,0,0-4.72,1.37,2.24,2.24,0,0,0-4.36.67V26.11a2.24,2.24,0,0,0,4.47,0v-7a4.73,4.73,0,0,1,4.61-4.8,4.51,4.51,0,0,1,3.09,1.23A2.24,2.24,0,0,0,127,15.4a2.2,2.2,0,0,0-.12-3.13A9,9,0,0,0,120.78,9.82Z"/><path class="cls-1" d="M144.32,24.32,137.4,18l6.21-4.2A2.28,2.28,0,0,0,141,10l-7.33,5.06V2.53a2.27,2.27,0,1,0-4.53,0V26.22a2.27,2.27,0,1,0,4.53,0V20.68l7.59,7a2.2,2.2,0,0,0,1.52.59,2.47,2.47,0,0,0,1.68-.7A2.34,2.34,0,0,0,144.32,24.32Z"/></svg>