<svg id="Calque_1" data-name="Calque 1" xmlns="http://www.w3.org/2000/svg" viewBox="0 0 145.03 122.55"><defs><style>.cls-1{fill:#5560a9;}.cls-2{fill:#fee78a;}.cls-3{fill:#ee7085;}</style></defs><path class="cls-1" d="M19,94.33A9.3,9.3,0,0,0,13.68,96h0v0a2.43,2.43,0,0,0-.31-.55.43.43,0,0,0,0-.07C12.26,93.84,8.51,91.46,0,109.75a.26.26,0,0,0,.46.26c3.21-5.22,8.6-13.24,8.77-8.43v18.7a2.25,2.25,0,1,0,4.5,0v-8.7A9.71,9.71,0,0,0,19,113.14a9.41,9.41,0,1,0,0-18.81Zm0,14.31a4.91,4.91,0,1,1,4.91-4.91A4.91,4.91,0,0,1,19,108.64Z"/><path class="cls-1" d="M40.83,94.59a7.59,7.59,0,0,0-1.64-.15,9.34,9.34,0,0,0,0,18.67,10.32,10.32,0,0,0,7-2.65,2.2,2.2,0,0,0,0-3.16,2.23,2.23,0,0,0-3.16,0,6.24,6.24,0,0,1-3.91,1.41,4.91,4.91,0,0,1-4.72-3.76H45.92a2,2,0,0,0,1.83-1.33,3.17,3.17,0,0,0,.29-1.08,7.1,7.1,0,0,0-1.19-3.65A9,9,0,0,0,40.83,94.59Zm-5.73,6.58a4.82,4.82,0,0,1,4.09-2.23,4.13,4.13,0,0,1,3.8,2.23Z"/><path class="cls-1" d="M58,98.45A2.23,2.23,0,0,0,58,94H56.75v-7.1a2.24,2.24,0,0,0-4.47,0V94h-1.6a2.23,2.23,0,1,0,0,4.46h1.6v9.37a5.43,5.43,0,0,0,1.27,3.35,5.29,5.29,0,0,0,3.27,1.67,7.79,7.79,0,0,0,1,0A2.21,2.21,0,0,0,60,110.65a2.24,2.24,0,0,0-2.23-2.23c-.26,0-.6,0-.78-.15s-.19-.67-.26-1V98.45Z"/><path class="cls-1" d="M85.38,94.51a2.24,2.24,0,0,0-2.23,2.23v9.41a2.92,2.92,0,0,1-5.8,0V96.82a2.24,2.24,0,0,0-4.47,0v9.33a2.92,2.92,0,0,1-5.8,0V96.82a2.23,2.23,0,0,0-4.46,0v9.33a7.22,7.22,0,0,0,7.36,7,7.56,7.56,0,0,0,5.14-2,7.6,7.6,0,0,0,5.13,2,7.26,7.26,0,0,0,7.36-6.81V96.74A2.24,2.24,0,0,0,85.38,94.51Z"/><path class="cls-1" d="M99.73,94.25a9.34,9.34,0,1,0,9.37,9.37A9.36,9.36,0,0,0,99.73,94.25Zm0,14.1a4.76,4.76,0,1,1,4.76-4.76A4.75,4.75,0,0,1,99.73,108.35Z"/><path class="cls-1" d="M120.78,94.47a8.92,8.92,0,0,0-4.72,1.38,2.24,2.24,0,0,0-4.36.67v14.24a2.24,2.24,0,0,0,4.47,0v-7a4.72,4.72,0,0,1,4.61-4.79,4.5,4.5,0,0,1,3.09,1.22,2.22,2.22,0,0,0,3.16-.11,2.18,2.18,0,0,0-.12-3.12A9,9,0,0,0,120.78,94.47Z"/><path class="cls-1" d="M144.32,109l-6.92-6.36,6.21-4.2a2.29,2.29,0,0,0,.52-3.17A2.26,2.26,0,0,0,141,94.7l-7.33,5V87.19a2.27,2.27,0,1,0-4.53,0v23.68a2.27,2.27,0,1,0,4.53,0v-5.54l7.59,7a2.21,2.21,0,0,0,1.52.6,2.43,2.43,0,0,0,1.68-.71A2.32,2.32,0,0,0,144.32,109Z"/><path class="cls-2" d="M105.08,47.1c0,15.42-13.9,27.73-31.06,27.73S43,62.52,43,47.1,105.08,31.68,105.08,47.1Z"/><path class="cls-3" d="M66.66,61.46A7.63,7.63,0,0,0,74,67.68c6.41.28,7.32-6.22,7.32-6.22L74,55.81Z"/><path class="cls-1" d="M60.57,31.05a4.63,4.63,0,1,0-4.63-4.62A4.62,4.62,0,0,0,60.57,31.05Z"/><path class="cls-1" d="M87.48,31.05a4.63,4.63,0,1,0-4.63-4.62A4.62,4.62,0,0,0,87.48,31.05Z"/><path class="cls-1" d="M87.14,58.58s-4.5.92-7.77-1.69a10.52,10.52,0,0,1-3.46-6.74,6.45,6.45,0,0,0,2.77-1.7l.24-.24a4,4,0,0,0-2.85-6.69H72a4,4,0,0,0-2.84,6.69l.23.24a6.45,6.45,0,0,0,2.77,1.7,10.52,10.52,0,0,1-3.46,6.74C65.42,59.5,61,58.6,60.9,58.58a1.59,1.59,0,0,0-.68,3.11,13.28,13.28,0,0,0,2.61.24l.78,0a10.54,10.54,0,0,0,20.82,0l.79,0a13.12,13.12,0,0,0,2.6-.24,1.59,1.59,0,0,0-.68-3.11ZM74,67.63a7.37,7.37,0,0,1-7.27-6.25,11.35,11.35,0,0,0,3.88-2,11.13,11.13,0,0,0,1.8-1.83v6.1a1.59,1.59,0,0,0,3.18,0v-6.1a11.61,11.61,0,0,0,1.81,1.83,11.18,11.18,0,0,0,3.88,2A7.38,7.38,0,0,1,74,67.63Z"/><path class="cls-1" d="M121.32,47.68a1.59,1.59,0,1,0-1.09-3l-8.64,3.15A37.08,37.08,0,0,0,111.9,43l9.42-3.43a1.59,1.59,0,0,0-1.09-3l-8.33,3V9A9,9,0,0,0,98.38,1.22L90.93,5.53a9.1,9.1,0,0,1-4.51,1.21,8.92,8.92,0,0,1-2.34-.32A38.16,38.16,0,0,0,64,6.42a8.92,8.92,0,0,1-2.34.32,9.13,9.13,0,0,1-4.51-1.21L49.66,1.22A8.91,8.91,0,0,0,45.17,0a9,9,0,0,0-9,9V39.59l-8.33-3a1.59,1.59,0,1,0-1.09,3L36.14,43a39.33,39.33,0,0,0,.37,4.88l-8.7-3.17a1.59,1.59,0,1,0-1.09,3l10.47,3.81a37.75,37.75,0,0,0,1.58,5.07l-11-4a1.59,1.59,0,1,0-1.09,3l13.92,5.07A37.81,37.81,0,0,0,73,80.82h1a37.88,37.88,0,0,0,33.55-20.27l13.75-5a1.59,1.59,0,1,0-1.09-3L109.4,56.51a36,36,0,0,0,1.54-5ZM74,74.47h-.84a31.08,31.08,0,0,1-21.74-9.65A32.05,32.05,0,0,1,42.5,42.55V9a2.51,2.51,0,0,1,.79-1.9,2.73,2.73,0,0,1,1.88-.77,2.55,2.55,0,0,1,1.31.37L53.94,11a15.36,15.36,0,0,0,7.68,2.07,14.71,14.71,0,0,0,4-.55,31.91,31.91,0,0,1,16.76,0,14.77,14.77,0,0,0,4,.55A15.42,15.42,0,0,0,94.11,11l7.45-4.3a2.59,2.59,0,0,1,1.32-.37A2.68,2.68,0,0,1,105.54,9V43A31.56,31.56,0,0,1,74,74.47Z"/></svg>