<svg id="Calque_1" data-name="Calque 1" xmlns="http://www.w3.org/2000/svg" viewBox="0 0 95.72 80.02"><defs><style>.cls-1{fill:#fde68a;}.cls-2{fill:#fb7185;}.cls-3{fill:#3b82f6;}</style></defs><path class="cls-1" d="M78.61,46.63c0,15.26-13.77,27.44-30.75,27.44S17.11,61.89,17.11,46.63,78.61,31.36,78.61,46.63Z"/><path class="cls-2" d="M40.57,60.85A7.55,7.55,0,0,0,47.86,67c6.35.28,7.25-6.15,7.25-6.15l-7.25-5.6Z"/><path class="cls-3" d="M34.54,30.74A4.58,4.58,0,1,0,30,26.16,4.58,4.58,0,0,0,34.54,30.74Z"/><path class="cls-3" d="M61.18,30.74a4.58,4.58,0,1,0-4.58-4.58A4.58,4.58,0,0,0,61.18,30.74Z"/><path class="cls-3" d="M60.85,58c-.05,0-4.46.92-7.69-1.67-1.78-1.43-2.92-3.66-3.43-6.67A6.42,6.42,0,0,0,52.48,48l.23-.24a3.91,3.91,0,0,0-2.82-6.62H45.83A3.91,3.91,0,0,0,43,47.72l.23.24A6.33,6.33,0,0,0,46,49.65a10.36,10.36,0,0,1-3.43,6.67C39.34,58.9,35,58,34.88,58a1.57,1.57,0,1,0-.68,3.07,12.91,12.91,0,0,0,2.58.24l.78,0a10.43,10.43,0,0,0,20.61,0l.77,0a12.91,12.91,0,0,0,2.58-.24A1.58,1.58,0,0,0,60.85,58Zm-13,9a7.3,7.3,0,0,1-7.2-6.18A11,11,0,0,0,46.29,57v6a1.58,1.58,0,0,0,3.15,0V57a10.86,10.86,0,0,0,5.62,3.77A7.3,7.3,0,0,1,47.86,67Z"/><path class="cls-3" d="M94.69,47.2a1.57,1.57,0,0,0,.94-2,1.58,1.58,0,0,0-2-.95l-8.56,3.12a36.43,36.43,0,0,0,.31-4.81l9.33-3.4a1.57,1.57,0,0,0,.94-2,1.58,1.58,0,0,0-2-1l-8.25,3V8.94A8.9,8.9,0,0,0,72,1.21L64.6,5.47a8.93,8.93,0,0,1-4.46,1.2,8.7,8.7,0,0,1-2.32-.31,37.69,37.69,0,0,0-19.92,0,8.68,8.68,0,0,1-2.31.31,8.88,8.88,0,0,1-4.46-1.2L23.75,1.21A8.91,8.91,0,0,0,10.36,8.94V39.2l-8.25-3a1.57,1.57,0,0,0-2,1,1.56,1.56,0,0,0,.94,2l9.33,3.4a36.73,36.73,0,0,0,.35,4.83L2.11,44.24a1.57,1.57,0,0,0-2,.95,1.56,1.56,0,0,0,.94,2L11.4,51A37,37,0,0,0,13,56L2.11,52A1.57,1.57,0,0,0,1,55l13.78,5a37.41,37.41,0,0,0,32,20h1A37.5,37.5,0,0,0,81.07,60l13.62-5a1.58,1.58,0,0,0-1.08-3l-10.72,3.9a36.16,36.16,0,0,0,1.52-5ZM47.86,73.73l-.83,0a30.73,30.73,0,0,1-21.52-9.56,31.66,31.66,0,0,1-8.85-22V8.94a2.5,2.5,0,0,1,.78-1.88A2.68,2.68,0,0,1,19.3,6.3a2.61,2.61,0,0,1,1.3.36L28,10.92A15.18,15.18,0,0,0,35.59,13a14.92,14.92,0,0,0,4-.54,31.24,31.24,0,0,1,16.58,0,14.94,14.94,0,0,0,4,.54,15.24,15.24,0,0,0,7.61-2.05l7.38-4.26a2.58,2.58,0,0,1,1.3-.36,2.66,2.66,0,0,1,2.64,2.64V42.52A31.24,31.24,0,0,1,47.86,73.73Z"/></svg>