<svg id="Calque_1" data-name="Calque 1" xmlns="http://www.w3.org/2000/svg" viewBox="0 0 96.69 80.83"><defs><style>.cls-1{fill:#fee78a;}.cls-2{fill:#ee7085;}.cls-3{fill:#5560a9;}</style></defs><path class="cls-1" d="M79.41,47.1c0,15.42-13.91,27.73-31.06,27.73S17.28,62.52,17.28,47.1,79.41,31.68,79.41,47.1Z"/><path class="cls-2" d="M41,61.46a7.65,7.65,0,0,0,7.37,6.22c6.41.28,7.32-6.22,7.32-6.22l-7.32-5.65Z"/><path class="cls-3" d="M34.89,31.05a4.63,4.63,0,1,0-4.62-4.62A4.63,4.63,0,0,0,34.89,31.05Z"/><path class="cls-3" d="M61.8,31.05a4.63,4.63,0,1,0-4.62-4.62A4.63,4.63,0,0,0,61.8,31.05Z"/><path class="cls-3" d="M61.46,58.58s-4.5.92-7.76-1.69c-1.8-1.44-3-3.7-3.46-6.74A6.51,6.51,0,0,0,53,48.45l.23-.24a4,4,0,0,0-2.84-6.69H46.3a4,4,0,0,0-2.85,6.69l.24.24a6.45,6.45,0,0,0,2.77,1.7A10.52,10.52,0,0,1,43,56.89c-3.26,2.61-7.7,1.71-7.77,1.69a1.59,1.59,0,0,0-.68,3.11,13.12,13.12,0,0,0,2.6.24l.79,0a10.54,10.54,0,0,0,20.82,0l.78,0a13,13,0,0,0,2.6-.24,1.59,1.59,0,0,0-.68-3.11Zm-13.11,9a7.38,7.38,0,0,1-7.28-6.25,11.18,11.18,0,0,0,3.88-2,11.61,11.61,0,0,0,1.81-1.83v6.1a1.59,1.59,0,1,0,3.18,0v-6.1a11.13,11.13,0,0,0,1.8,1.83,11.35,11.35,0,0,0,3.88,2A7.37,7.37,0,0,1,48.35,67.63Z"/><path class="cls-3" d="M95.65,47.68a1.59,1.59,0,0,0-1.09-3l-8.64,3.15A38.9,38.9,0,0,0,86.23,43l9.42-3.43a1.59,1.59,0,1,0-1.09-3l-8.33,3V9a9,9,0,0,0-9-9,8.91,8.91,0,0,0-4.49,1.22L65.25,5.53a9.06,9.06,0,0,1-4.5,1.21,8.86,8.86,0,0,1-2.34-.32,38.2,38.2,0,0,0-20.13,0A8.79,8.79,0,0,1,36,6.74a9.1,9.1,0,0,1-4.51-1.21L24,1.22A9,9,0,0,0,10.47,9V39.59l-8.34-3a1.59,1.59,0,0,0-1.08,3L10.47,43a39.33,39.33,0,0,0,.36,4.88l-8.7-3.17a1.59,1.59,0,0,0-1.08,3l10.47,3.81a37.75,37.75,0,0,0,1.58,5.07l-11-4a1.58,1.58,0,1,0-1.08,3L15,60.62a37.8,37.8,0,0,0,32.37,20.2h1A37.87,37.87,0,0,0,81.89,60.56l13.76-5a1.59,1.59,0,1,0-1.09-3L83.73,56.51a38.82,38.82,0,0,0,1.54-5ZM48.35,74.47H47.5a31.08,31.08,0,0,1-21.73-9.65,32,32,0,0,1-8.94-22.26V9a2.53,2.53,0,0,1,.78-1.9,2.77,2.77,0,0,1,1.88-.77,2.59,2.59,0,0,1,1.32.37L28.26,11A15.42,15.42,0,0,0,36,13.1a14.77,14.77,0,0,0,4-.55,31.87,31.87,0,0,1,16.75,0,14.84,14.84,0,0,0,4,.55A15.38,15.38,0,0,0,68.43,11l7.46-4.3a2.53,2.53,0,0,1,1.31-.37A2.68,2.68,0,0,1,79.87,9V43A31.56,31.56,0,0,1,48.35,74.47Z"/></svg>